
<svg contentScriptType="text/ecmascript" width="800px"
     xmlns:xlink="http://www.w3.org/1999/xlink" zoomAndPan="magnify"
     style="height: 600px; display: block;" contentStyleType="text/css"
     height="600px" id="chart_svg" preserveAspectRatio="xMidYMid meet"
     xmlns="http://www.w3.org/2000/svg" version="1.0">
    <defs>
        <g>
            <g>
                <clipPath id="clip-1">
                    <rect x="41.203125" width="754.796875" height="495" y="35"/>
                </clipPath>
            </g>
        </g>
    </defs>
    <g>
        <g>
            <rect fill="rgb(255,255,255)" x="0" width="800" height="600" y="0"/>
            <rect fill="rgb(255,255,255)" x="41.203125" width="754.796875"
                  height="495" y="35"/>
            <line transform="matrix(1.000,0.000,0.000,1.000,0.000,0.000)"
                  x1="76.000" x2="76.000" y1="35.000" y2="530.000"
                  style="stroke-width: 1; stroke-linecap: round; stroke-linejoin: round; "
                  stroke="rgb(230,230,230)"/>
            <line transform="matrix(1.000,0.000,0.000,1.000,0.000,0.000)"
                  x1="75.512" x2="75.512" y1="530.000" y2="532.000"
                  style="stroke-width: 0.5; stroke-linecap: round; stroke-linejoin: round; "
                  stroke="rgb(100,100,100)"/>
            <text x="75.512" fill="rgb(0,0,0)" y="545.000"
                  style="font-family: sans-serif; font-weight: normal; font-style: normal; font-size: 11px"
                  transform="matrix(1.000,0.000,0.000,1.000,0.000,0.000)"
                  text-anchor="middle">
                3/11/20
            </text>
            <line transform="matrix(1.000,0.000,0.000,1.000,0.000,0.000)"
                  x1="96.000" x2="96.000" y1="35.000" y2="530.000"
                  style="stroke-width: 1; stroke-linecap: round; stroke-linejoin: round; "
                  stroke="rgb(230,230,230)"/>
            <line transform="matrix(1.000,0.000,0.000,1.000,0.000,0.000)"
                  x1="95.694" x2="95.694" y1="530.000" y2="532.000"
                  style="stroke-width: 0.5; stroke-linecap: round; stroke-linejoin: round; "
                  stroke="rgb(100,100,100)"/>
            <text x="95.694" fill="rgb(0,0,0)" y="545.000"
                  style="font-family: sans-serif; font-weight: normal; font-style: normal; font-size: 11px"
                  transform="matrix(1.000,0.000,0.000,1.000,0.000,0.000)"
                  text-anchor="middle">
                3/12/20
            </text>
            <line transform="matrix(1.000,0.000,0.000,1.000,0.000,0.000)"
                  x1="116.000" x2="116.000" y1="35.000" y2="530.000"
                  style="stroke-width: 1; stroke-linecap: round; stroke-linejoin: round; "
                  stroke="rgb(230,230,230)"/>
            <line transform="matrix(1.000,0.000,0.000,1.000,0.000,0.000)"
                  x1="115.876" x2="115.876" y1="530.000" y2="532.000"
                  style="stroke-width: 0.5; stroke-linecap: round; stroke-linejoin: round; "
                  stroke="rgb(100,100,100)"/>
            <text x="115.876" fill="rgb(0,0,0)" y="545.000"
                  style="font-family: sans-serif; font-weight: normal; font-style: normal; font-size: 11px"
                  transform="matrix(1.000,0.000,0.000,1.000,0.000,0.000)"
                  text-anchor="middle">
                3/13/20
            </text>
            <line transform="matrix(1.000,0.000,0.000,1.000,0.000,0.000)"
                  x1="136.000" x2="136.000" y1="35.000" y2="530.000"
                  style="stroke-width: 1; stroke-linecap: round; stroke-linejoin: round; "
                  stroke="rgb(230,230,230)"/>
            <line transform="matrix(1.000,0.000,0.000,1.000,0.000,0.000)"
                  x1="136.057" x2="136.057" y1="530.000" y2="532.000"
                  style="stroke-width: 0.5; stroke-linecap: round; stroke-linejoin: round; "
                  stroke="rgb(100,100,100)"/>
            <text x="136.057" fill="rgb(0,0,0)" y="545.000"
                  style="font-family: sans-serif; font-weight: normal; font-style: normal; font-size: 11px"
                  transform="matrix(1.000,0.000,0.000,1.000,0.000,0.000)"
                  text-anchor="middle">
                3/14/20
            </text>
            <line transform="matrix(1.000,0.000,0.000,1.000,0.000,0.000)"
                  x1="156.000" x2="156.000" y1="35.000" y2="530.000"
                  style="stroke-width: 1; stroke-linecap: round; stroke-linejoin: round; "
                  stroke="rgb(230,230,230)"/>
            <line transform="matrix(1.000,0.000,0.000,1.000,0.000,0.000)"
                  x1="156.239" x2="156.239" y1="530.000" y2="532.000"
                  style="stroke-width: 0.5; stroke-linecap: round; stroke-linejoin: round; "
                  stroke="rgb(100,100,100)"/>
            <text x="156.239" fill="rgb(0,0,0)" y="545.000"
                  style="font-family: sans-serif; font-weight: normal; font-style: normal; font-size: 11px"
                  transform="matrix(1.000,0.000,0.000,1.000,0.000,0.000)"
                  text-anchor="middle">
                3/15/20
            </text>
            <line transform="matrix(1.000,0.000,0.000,1.000,0.000,0.000)"
                  x1="176.000" x2="176.000" y1="35.000" y2="530.000"
                  style="stroke-width: 1; stroke-linecap: round; stroke-linejoin: round; "
                  stroke="rgb(230,230,230)"/>
            <line transform="matrix(1.000,0.000,0.000,1.000,0.000,0.000)"
                  x1="176.421" x2="176.421" y1="530.000" y2="532.000"
                  style="stroke-width: 0.5; stroke-linecap: round; stroke-linejoin: round; "
                  stroke="rgb(100,100,100)"/>
            <text x="176.421" fill="rgb(0,0,0)" y="545.000"
                  style="font-family: sans-serif; font-weight: normal; font-style: normal; font-size: 11px"
                  transform="matrix(1.000,0.000,0.000,1.000,0.000,0.000)"
                  text-anchor="middle">
                3/16/20
            </text>
            <line transform="matrix(1.000,0.000,0.000,1.000,0.000,0.000)"
                  x1="197.000" x2="197.000" y1="35.000" y2="530.000"
                  style="stroke-width: 1; stroke-linecap: round; stroke-linejoin: round; "
                  stroke="rgb(230,230,230)"/>
            <line transform="matrix(1.000,0.000,0.000,1.000,0.000,0.000)"
                  x1="196.602" x2="196.602" y1="530.000" y2="532.000"
                  style="stroke-width: 0.5; stroke-linecap: round; stroke-linejoin: round; "
                  stroke="rgb(100,100,100)"/>
            <text x="196.602" fill="rgb(0,0,0)" y="545.000"
                  style="font-family: sans-serif; font-weight: normal; font-style: normal; font-size: 11px"
                  transform="matrix(1.000,0.000,0.000,1.000,0.000,0.000)"
                  text-anchor="middle">
                3/17/20
            </text>
            <line transform="matrix(1.000,0.000,0.000,1.000,0.000,0.000)"
                  x1="217.000" x2="217.000" y1="35.000" y2="530.000"
                  style="stroke-width: 1; stroke-linecap: round; stroke-linejoin: round; "
                  stroke="rgb(230,230,230)"/>
            <line transform="matrix(1.000,0.000,0.000,1.000,0.000,0.000)"
                  x1="216.784" x2="216.784" y1="530.000" y2="532.000"
                  style="stroke-width: 0.5; stroke-linecap: round; stroke-linejoin: round; "
                  stroke="rgb(100,100,100)"/>
            <text x="216.784" fill="rgb(0,0,0)" y="545.000"
                  style="font-family: sans-serif; font-weight: normal; font-style: normal; font-size: 11px"
                  transform="matrix(1.000,0.000,0.000,1.000,0.000,0.000)"
                  text-anchor="middle">
                3/18/20
            </text>
            <line transform="matrix(1.000,0.000,0.000,1.000,0.000,0.000)"
                  x1="237.000" x2="237.000" y1="35.000" y2="530.000"
                  style="stroke-width: 1; stroke-linecap: round; stroke-linejoin: round; "
                  stroke="rgb(230,230,230)"/>
            <line transform="matrix(1.000,0.000,0.000,1.000,0.000,0.000)"
                  x1="236.966" x2="236.966" y1="530.000" y2="532.000"
                  style="stroke-width: 0.5; stroke-linecap: round; stroke-linejoin: round; "
                  stroke="rgb(100,100,100)"/>
            <text x="236.966" fill="rgb(0,0,0)" y="545.000"
                  style="font-family: sans-serif; font-weight: normal; font-style: normal; font-size: 11px"
                  transform="matrix(1.000,0.000,0.000,1.000,0.000,0.000)"
                  text-anchor="middle">
                3/19/20
            </text>
            <line transform="matrix(1.000,0.000,0.000,1.000,0.000,0.000)"
                  x1="257.000" x2="257.000" y1="35.000" y2="530.000"
                  style="stroke-width: 1; stroke-linecap: round; stroke-linejoin: round; "
                  stroke="rgb(230,230,230)"/>
            <line transform="matrix(1.000,0.000,0.000,1.000,0.000,0.000)"
                  x1="257.148" x2="257.148" y1="530.000" y2="532.000"
                  style="stroke-width: 0.5; stroke-linecap: round; stroke-linejoin: round; "
                  stroke="rgb(100,100,100)"/>
            <text x="257.148" fill="rgb(0,0,0)" y="545.000"
                  style="font-family: sans-serif; font-weight: normal; font-style: normal; font-size: 11px"
                  transform="matrix(1.000,0.000,0.000,1.000,0.000,0.000)"
                  text-anchor="middle">
                3/20/20
            </text>
            <line transform="matrix(1.000,0.000,0.000,1.000,0.000,0.000)"
                  x1="277.000" x2="277.000" y1="35.000" y2="530.000"
                  style="stroke-width: 1; stroke-linecap: round; stroke-linejoin: round; "
                  stroke="rgb(230,230,230)"/>
            <line transform="matrix(1.000,0.000,0.000,1.000,0.000,0.000)"
                  x1="277.329" x2="277.329" y1="530.000" y2="532.000"
                  style="stroke-width: 0.5; stroke-linecap: round; stroke-linejoin: round; "
                  stroke="rgb(100,100,100)"/>
            <text x="277.329" fill="rgb(0,0,0)" y="545.000"
                  style="font-family: sans-serif; font-weight: normal; font-style: normal; font-size: 11px"
                  transform="matrix(1.000,0.000,0.000,1.000,0.000,0.000)"
                  text-anchor="middle">
                3/21/20
            </text>
            <line transform="matrix(1.000,0.000,0.000,1.000,0.000,0.000)"
                  x1="298.000" x2="298.000" y1="35.000" y2="530.000"
                  style="stroke-width: 1; stroke-linecap: round; stroke-linejoin: round; "
                  stroke="rgb(230,230,230)"/>
            <line transform="matrix(1.000,0.000,0.000,1.000,0.000,0.000)"
                  x1="297.511" x2="297.511" y1="530.000" y2="532.000"
                  style="stroke-width: 0.5; stroke-linecap: round; stroke-linejoin: round; "
                  stroke="rgb(100,100,100)"/>
            <text x="297.511" fill="rgb(0,0,0)" y="545.000"
                  style="font-family: sans-serif; font-weight: normal; font-style: normal; font-size: 11px"
                  transform="matrix(1.000,0.000,0.000,1.000,0.000,0.000)"
                  text-anchor="middle">
                3/22/20
            </text>
            <line transform="matrix(1.000,0.000,0.000,1.000,0.000,0.000)"
                  x1="318.000" x2="318.000" y1="35.000" y2="530.000"
                  style="stroke-width: 1; stroke-linecap: round; stroke-linejoin: round; "
                  stroke="rgb(230,230,230)"/>
            <line transform="matrix(1.000,0.000,0.000,1.000,0.000,0.000)"
                  x1="317.693" x2="317.693" y1="530.000" y2="532.000"
                  style="stroke-width: 0.5; stroke-linecap: round; stroke-linejoin: round; "
                  stroke="rgb(100,100,100)"/>
            <text x="317.693" fill="rgb(0,0,0)" y="545.000"
                  style="font-family: sans-serif; font-weight: normal; font-style: normal; font-size: 11px"
                  transform="matrix(1.000,0.000,0.000,1.000,0.000,0.000)"
                  text-anchor="middle">
                3/23/20
            </text>
            <line transform="matrix(1.000,0.000,0.000,1.000,0.000,0.000)"
                  x1="338.000" x2="338.000" y1="35.000" y2="530.000"
                  style="stroke-width: 1; stroke-linecap: round; stroke-linejoin: round; "
                  stroke="rgb(230,230,230)"/>
            <line transform="matrix(1.000,0.000,0.000,1.000,0.000,0.000)"
                  x1="337.875" x2="337.875" y1="530.000" y2="532.000"
                  style="stroke-width: 0.5; stroke-linecap: round; stroke-linejoin: round; "
                  stroke="rgb(100,100,100)"/>
            <text x="337.875" fill="rgb(0,0,0)" y="545.000"
                  style="font-family: sans-serif; font-weight: normal; font-style: normal; font-size: 11px"
                  transform="matrix(1.000,0.000,0.000,1.000,0.000,0.000)"
                  text-anchor="middle">
                3/24/20
            </text>
            <line transform="matrix(1.000,0.000,0.000,1.000,0.000,0.000)"
                  x1="358.000" x2="358.000" y1="35.000" y2="530.000"
                  style="stroke-width: 1; stroke-linecap: round; stroke-linejoin: round; "
                  stroke="rgb(230,230,230)"/>
            <line transform="matrix(1.000,0.000,0.000,1.000,0.000,0.000)"
                  x1="358.056" x2="358.056" y1="530.000" y2="532.000"
                  style="stroke-width: 0.5; stroke-linecap: round; stroke-linejoin: round; "
                  stroke="rgb(100,100,100)"/>
            <text x="358.056" fill="rgb(0,0,0)" y="545.000"
                  style="font-family: sans-serif; font-weight: normal; font-style: normal; font-size: 11px"
                  transform="matrix(1.000,0.000,0.000,1.000,0.000,0.000)"
                  text-anchor="middle">
                3/25/20
            </text>
            <line transform="matrix(1.000,0.000,0.000,1.000,0.000,0.000)"
                  x1="378.000" x2="378.000" y1="35.000" y2="530.000"
                  style="stroke-width: 1; stroke-linecap: round; stroke-linejoin: round; "
                  stroke="rgb(230,230,230)"/>
            <line transform="matrix(1.000,0.000,0.000,1.000,0.000,0.000)"
                  x1="378.238" x2="378.238" y1="530.000" y2="532.000"
                  style="stroke-width: 0.5; stroke-linecap: round; stroke-linejoin: round; "
                  stroke="rgb(100,100,100)"/>
            <text x="378.238" fill="rgb(0,0,0)" y="545.000"
                  style="font-family: sans-serif; font-weight: normal; font-style: normal; font-size: 11px"
                  transform="matrix(1.000,0.000,0.000,1.000,0.000,0.000)"
                  text-anchor="middle">
                3/26/20
            </text>
            <line transform="matrix(1.000,0.000,0.000,1.000,0.000,0.000)"
                  x1="398.000" x2="398.000" y1="35.000" y2="530.000"
                  style="stroke-width: 1; stroke-linecap: round; stroke-linejoin: round; "
                  stroke="rgb(230,230,230)"/>
            <line transform="matrix(1.000,0.000,0.000,1.000,0.000,0.000)"
                  x1="398.420" x2="398.420" y1="530.000" y2="532.000"
                  style="stroke-width: 0.5; stroke-linecap: round; stroke-linejoin: round; "
                  stroke="rgb(100,100,100)"/>
            <text x="398.420" fill="rgb(0,0,0)" y="545.000"
                  style="font-family: sans-serif; font-weight: normal; font-style: normal; font-size: 11px"
                  transform="matrix(1.000,0.000,0.000,1.000,0.000,0.000)"
                  text-anchor="middle">
                3/27/20
            </text>
            <line transform="matrix(1.000,0.000,0.000,1.000,0.000,0.000)"
                  x1="419.000" x2="419.000" y1="35.000" y2="530.000"
                  style="stroke-width: 1; stroke-linecap: round; stroke-linejoin: round; "
                  stroke="rgb(230,230,230)"/>
            <line transform="matrix(1.000,0.000,0.000,1.000,0.000,0.000)"
                  x1="418.602" x2="418.602" y1="530.000" y2="532.000"
                  style="stroke-width: 0.5; stroke-linecap: round; stroke-linejoin: round; "
                  stroke="rgb(100,100,100)"/>
            <text x="418.602" fill="rgb(0,0,0)" y="545.000"
                  style="font-family: sans-serif; font-weight: normal; font-style: normal; font-size: 11px"
                  transform="matrix(1.000,0.000,0.000,1.000,0.000,0.000)"
                  text-anchor="middle">
                3/28/20
            </text>
            <line transform="matrix(1.000,0.000,0.000,1.000,0.000,0.000)"
                  x1="439.000" x2="439.000" y1="35.000" y2="530.000"
                  style="stroke-width: 1; stroke-linecap: round; stroke-linejoin: round; "
                  stroke="rgb(230,230,230)"/>
            <line transform="matrix(1.000,0.000,0.000,1.000,0.000,0.000)"
                  x1="438.783" x2="438.783" y1="530.000" y2="532.000"
                  style="stroke-width: 0.5; stroke-linecap: round; stroke-linejoin: round; "
                  stroke="rgb(100,100,100)"/>
            <text x="438.783" fill="rgb(0,0,0)" y="545.000"
                  style="font-family: sans-serif; font-weight: normal; font-style: normal; font-size: 11px"
                  transform="matrix(1.000,0.000,0.000,1.000,0.000,0.000)"
                  text-anchor="middle">
                3/29/20
            </text>
            <line transform="matrix(1.000,0.000,0.000,1.000,0.000,0.000)"
                  x1="459.000" x2="459.000" y1="35.000" y2="530.000"
                  style="stroke-width: 1; stroke-linecap: round; stroke-linejoin: round; "
                  stroke="rgb(230,230,230)"/>
            <line transform="matrix(1.000,0.000,0.000,1.000,0.000,0.000)"
                  x1="458.965" x2="458.965" y1="530.000" y2="532.000"
                  style="stroke-width: 0.5; stroke-linecap: round; stroke-linejoin: round; "
                  stroke="rgb(100,100,100)"/>
            <text x="458.965" fill="rgb(0,0,0)" y="545.000"
                  style="font-family: sans-serif; font-weight: normal; font-style: normal; font-size: 11px"
                  transform="matrix(1.000,0.000,0.000,1.000,0.000,0.000)"
                  text-anchor="middle">
                3/30/20
            </text>
            <line transform="matrix(1.000,0.000,0.000,1.000,0.000,0.000)"
                  x1="479.000" x2="479.000" y1="35.000" y2="530.000"
                  style="stroke-width: 1; stroke-linecap: round; stroke-linejoin: round; "
                  stroke="rgb(230,230,230)"/>
            <line transform="matrix(1.000,0.000,0.000,1.000,0.000,0.000)"
                  x1="479.147" x2="479.147" y1="530.000" y2="532.000"
                  style="stroke-width: 0.5; stroke-linecap: round; stroke-linejoin: round; "
                  stroke="rgb(100,100,100)"/>
            <text x="479.147" fill="rgb(0,0,0)" y="545.000"
                  style="font-family: sans-serif; font-weight: normal; font-style: normal; font-size: 11px"
                  transform="matrix(1.000,0.000,0.000,1.000,0.000,0.000)"
                  text-anchor="middle">
                3/31/20
            </text>
            <line transform="matrix(1.000,0.000,0.000,1.000,0.000,0.000)"
                  x1="499.000" x2="499.000" y1="35.000" y2="530.000"
                  style="stroke-width: 1; stroke-linecap: round; stroke-linejoin: round; "
                  stroke="rgb(230,230,230)"/>
            <line transform="matrix(1.000,0.000,0.000,1.000,0.000,0.000)"
                  x1="499.329" x2="499.329" y1="530.000" y2="532.000"
                  style="stroke-width: 0.5; stroke-linecap: round; stroke-linejoin: round; "
                  stroke="rgb(100,100,100)"/>
            <text x="499.329" fill="rgb(0,0,0)" y="545.000"
                  style="font-family: sans-serif; font-weight: normal; font-style: normal; font-size: 11px"
                  transform="matrix(1.000,0.000,0.000,1.000,0.000,0.000)"
                  text-anchor="middle">
                4/1/20
            </text>
            <line transform="matrix(1.000,0.000,0.000,1.000,0.000,0.000)"
                  x1="520.000" x2="520.000" y1="35.000" y2="530.000"
                  style="stroke-width: 1; stroke-linecap: round; stroke-linejoin: round; "
                  stroke="rgb(230,230,230)"/>
            <line transform="matrix(1.000,0.000,0.000,1.000,0.000,0.000)"
                  x1="519.510" x2="519.510" y1="530.000" y2="532.000"
                  style="stroke-width: 0.5; stroke-linecap: round; stroke-linejoin: round; "
                  stroke="rgb(100,100,100)"/>
            <text x="519.510" fill="rgb(0,0,0)" y="545.000"
                  style="font-family: sans-serif; font-weight: normal; font-style: normal; font-size: 11px"
                  transform="matrix(1.000,0.000,0.000,1.000,0.000,0.000)"
                  text-anchor="middle">
                4/2/20
            </text>
            <line transform="matrix(1.000,0.000,0.000,1.000,0.000,0.000)"
                  x1="540.000" x2="540.000" y1="35.000" y2="530.000"
                  style="stroke-width: 1; stroke-linecap: round; stroke-linejoin: round; "
                  stroke="rgb(230,230,230)"/>
            <line transform="matrix(1.000,0.000,0.000,1.000,0.000,0.000)"
                  x1="539.692" x2="539.692" y1="530.000" y2="532.000"
                  style="stroke-width: 0.5; stroke-linecap: round; stroke-linejoin: round; "
                  stroke="rgb(100,100,100)"/>
            <text x="539.692" fill="rgb(0,0,0)" y="545.000"
                  style="font-family: sans-serif; font-weight: normal; font-style: normal; font-size: 11px"
                  transform="matrix(1.000,0.000,0.000,1.000,0.000,0.000)"
                  text-anchor="middle">
                4/3/20
            </text>
            <line transform="matrix(1.000,0.000,0.000,1.000,0.000,0.000)"
                  x1="560.000" x2="560.000" y1="35.000" y2="530.000"
                  style="stroke-width: 1; stroke-linecap: round; stroke-linejoin: round; "
                  stroke="rgb(230,230,230)"/>
            <line transform="matrix(1.000,0.000,0.000,1.000,0.000,0.000)"
                  x1="559.874" x2="559.874" y1="530.000" y2="532.000"
                  style="stroke-width: 0.5; stroke-linecap: round; stroke-linejoin: round; "
                  stroke="rgb(100,100,100)"/>
            <text x="559.874" fill="rgb(0,0,0)" y="545.000"
                  style="font-family: sans-serif; font-weight: normal; font-style: normal; font-size: 11px"
                  transform="matrix(1.000,0.000,0.000,1.000,0.000,0.000)"
                  text-anchor="middle">
                4/4/20
            </text>
            <line transform="matrix(1.000,0.000,0.000,1.000,0.000,0.000)"
                  x1="580.000" x2="580.000" y1="35.000" y2="530.000"
                  style="stroke-width: 1; stroke-linecap: round; stroke-linejoin: round; "
                  stroke="rgb(230,230,230)"/>
            <line transform="matrix(1.000,0.000,0.000,1.000,0.000,0.000)"
                  x1="580.055" x2="580.055" y1="530.000" y2="532.000"
                  style="stroke-width: 0.5; stroke-linecap: round; stroke-linejoin: round; "
                  stroke="rgb(100,100,100)"/>
            <text x="580.055" fill="rgb(0,0,0)" y="545.000"
                  style="font-family: sans-serif; font-weight: normal; font-style: normal; font-size: 11px"
                  transform="matrix(1.000,0.000,0.000,1.000,0.000,0.000)"
                  text-anchor="middle">
                4/5/20
            </text>
            <line transform="matrix(1.000,0.000,0.000,1.000,0.000,0.000)"
                  x1="600.000" x2="600.000" y1="35.000" y2="530.000"
                  style="stroke-width: 1; stroke-linecap: round; stroke-linejoin: round; "
                  stroke="rgb(230,230,230)"/>
            <line transform="matrix(1.000,0.000,0.000,1.000,0.000,0.000)"
                  x1="600.237" x2="600.237" y1="530.000" y2="532.000"
                  style="stroke-width: 0.5; stroke-linecap: round; stroke-linejoin: round; "
                  stroke="rgb(100,100,100)"/>
            <text x="600.237" fill="rgb(0,0,0)" y="545.000"
                  style="font-family: sans-serif; font-weight: normal; font-style: normal; font-size: 11px"
                  transform="matrix(1.000,0.000,0.000,1.000,0.000,0.000)"
                  text-anchor="middle">
                4/6/20
            </text>
            <line transform="matrix(1.000,0.000,0.000,1.000,0.000,0.000)"
                  x1="620.000" x2="620.000" y1="35.000" y2="530.000"
                  style="stroke-width: 1; stroke-linecap: round; stroke-linejoin: round; "
                  stroke="rgb(230,230,230)"/>
            <line transform="matrix(1.000,0.000,0.000,1.000,0.000,0.000)"
                  x1="620.419" x2="620.419" y1="530.000" y2="532.000"
                  style="stroke-width: 0.5; stroke-linecap: round; stroke-linejoin: round; "
                  stroke="rgb(100,100,100)"/>
            <text x="620.419" fill="rgb(0,0,0)" y="545.000"
                  style="font-family: sans-serif; font-weight: normal; font-style: normal; font-size: 11px"
                  transform="matrix(1.000,0.000,0.000,1.000,0.000,0.000)"
                  text-anchor="middle">
                4/7/20
            </text>
            <line transform="matrix(1.000,0.000,0.000,1.000,0.000,0.000)"
                  x1="641.000" x2="641.000" y1="35.000" y2="530.000"
                  style="stroke-width: 1; stroke-linecap: round; stroke-linejoin: round; "
                  stroke="rgb(230,230,230)"/>
            <line transform="matrix(1.000,0.000,0.000,1.000,0.000,0.000)"
                  x1="640.601" x2="640.601" y1="530.000" y2="532.000"
                  style="stroke-width: 0.5; stroke-linecap: round; stroke-linejoin: round; "
                  stroke="rgb(100,100,100)"/>
            <text x="640.601" fill="rgb(0,0,0)" y="545.000"
                  style="font-family: sans-serif; font-weight: normal; font-style: normal; font-size: 11px"
                  transform="matrix(1.000,0.000,0.000,1.000,0.000,0.000)"
                  text-anchor="middle">
                4/8/20
            </text>
            <line transform="matrix(1.000,0.000,0.000,1.000,0.000,0.000)"
                  x1="661.000" x2="661.000" y1="35.000" y2="530.000"
                  style="stroke-width: 1; stroke-linecap: round; stroke-linejoin: round; "
                  stroke="rgb(230,230,230)"/>
            <line transform="matrix(1.000,0.000,0.000,1.000,0.000,0.000)"
                  x1="660.782" x2="660.782" y1="530.000" y2="532.000"
                  style="stroke-width: 0.5; stroke-linecap: round; stroke-linejoin: round; "
                  stroke="rgb(100,100,100)"/>
            <text x="660.782" fill="rgb(0,0,0)" y="545.000"
                  style="font-family: sans-serif; font-weight: normal; font-style: normal; font-size: 11px"
                  transform="matrix(1.000,0.000,0.000,1.000,0.000,0.000)"
                  text-anchor="middle">
                4/9/20
            </text>
            <line transform="matrix(1.000,0.000,0.000,1.000,0.000,0.000)"
                  x1="681.000" x2="681.000" y1="35.000" y2="530.000"
                  style="stroke-width: 1; stroke-linecap: round; stroke-linejoin: round; "
                  stroke="rgb(230,230,230)"/>
            <line transform="matrix(1.000,0.000,0.000,1.000,0.000,0.000)"
                  x1="680.964" x2="680.964" y1="530.000" y2="532.000"
                  style="stroke-width: 0.5; stroke-linecap: round; stroke-linejoin: round; "
                  stroke="rgb(100,100,100)"/>
            <text x="680.964" fill="rgb(0,0,0)" y="545.000"
                  style="font-family: sans-serif; font-weight: normal; font-style: normal; font-size: 11px"
                  transform="matrix(1.000,0.000,0.000,1.000,0.000,0.000)"
                  text-anchor="middle">
                4/10/20
            </text>
            <line transform="matrix(1.000,0.000,0.000,1.000,0.000,0.000)"
                  x1="701.000" x2="701.000" y1="35.000" y2="530.000"
                  style="stroke-width: 1; stroke-linecap: round; stroke-linejoin: round; "
                  stroke="rgb(230,230,230)"/>
            <line transform="matrix(1.000,0.000,0.000,1.000,0.000,0.000)"
                  x1="701.146" x2="701.146" y1="530.000" y2="532.000"
                  style="stroke-width: 0.5; stroke-linecap: round; stroke-linejoin: round; "
                  stroke="rgb(100,100,100)"/>
            <text x="701.146" fill="rgb(0,0,0)" y="545.000"
                  style="font-family: sans-serif; font-weight: normal; font-style: normal; font-size: 11px"
                  transform="matrix(1.000,0.000,0.000,1.000,0.000,0.000)"
                  text-anchor="middle">
                4/11/20
            </text>
            <line transform="matrix(1.000,0.000,0.000,1.000,0.000,0.000)"
                  x1="721.000" x2="721.000" y1="35.000" y2="530.000"
                  style="stroke-width: 1; stroke-linecap: round; stroke-linejoin: round; "
                  stroke="rgb(230,230,230)"/>
            <line transform="matrix(1.000,0.000,0.000,1.000,0.000,0.000)"
                  x1="721.328" x2="721.328" y1="530.000" y2="532.000"
                  style="stroke-width: 0.5; stroke-linecap: round; stroke-linejoin: round; "
                  stroke="rgb(100,100,100)"/>
            <text x="721.328" fill="rgb(0,0,0)" y="545.000"
                  style="font-family: sans-serif; font-weight: normal; font-style: normal; font-size: 11px"
                  transform="matrix(1.000,0.000,0.000,1.000,0.000,0.000)"
                  text-anchor="middle">
                4/12/20
            </text>
            <line transform="matrix(1.000,0.000,0.000,1.000,0.000,0.000)"
                  x1="742.000" x2="742.000" y1="35.000" y2="530.000"
                  style="stroke-width: 1; stroke-linecap: round; stroke-linejoin: round; "
                  stroke="rgb(230,230,230)"/>
            <line transform="matrix(1.000,0.000,0.000,1.000,0.000,0.000)"
                  x1="741.509" x2="741.509" y1="530.000" y2="532.000"
                  style="stroke-width: 0.5; stroke-linecap: round; stroke-linejoin: round; "
                  stroke="rgb(100,100,100)"/>
            <text x="741.509" fill="rgb(0,0,0)" y="545.000"
                  style="font-family: sans-serif; font-weight: normal; font-style: normal; font-size: 11px"
                  transform="matrix(1.000,0.000,0.000,1.000,0.000,0.000)"
                  text-anchor="middle">
                4/13/20
            </text>
            <line transform="matrix(1.000,0.000,0.000,1.000,0.000,0.000)"
                  x1="762.000" x2="762.000" y1="35.000" y2="530.000"
                  style="stroke-width: 1; stroke-linecap: round; stroke-linejoin: round; "
                  stroke="rgb(230,230,230)"/>
            <line transform="matrix(1.000,0.000,0.000,1.000,0.000,0.000)"
                  x1="761.691" x2="761.691" y1="530.000" y2="532.000"
                  style="stroke-width: 0.5; stroke-linecap: round; stroke-linejoin: round; "
                  stroke="rgb(100,100,100)"/>
            <text x="761.691" fill="rgb(0,0,0)" y="545.000"
                  style="font-family: sans-serif; font-weight: normal; font-style: normal; font-size: 11px"
                  transform="matrix(1.000,0.000,0.000,1.000,0.000,0.000)"
                  text-anchor="middle">
                4/14/20
            </text>
            <line transform="matrix(1.000,0.000,0.000,1.000,0.000,0.000)"
                  x1="41.203" x2="796.000" y1="530.000" y2="530.000"
                  style="stroke-width: 0.5; stroke-linecap: round; stroke-linejoin: round; "
                  stroke="rgb(100,100,100)"/>
            <text x="418.602" fill="rgb(0,0,0)" y="561.000"
                  style="font-family: sans-serif; font-weight: bold; font-style: normal; font-size: 12px"
                  transform="matrix(1.000,0.000,0.000,1.000,0.000,0.000)"
                  text-anchor="middle">
                Last_Update
            </text>
            <line transform="matrix(1.000,0.000,0.000,1.000,0.000,0.000)"
                  x1="41.203" x2="796.000" y1="508.000" y2="508.000"
                  style="stroke-width: 1; stroke-linecap: round; stroke-linejoin: round; "
                  stroke="rgb(230,230,230)"/>
            <line transform="matrix(1.000,0.000,0.000,1.000,0.000,0.000)"
                  x1="39.203" x2="41.203" y1="507.500" y2="507.500"
                  style="stroke-width: 0.5; stroke-linecap: round; stroke-linejoin: round; "
                  stroke="rgb(100,100,100)"/>
            <text x="37.203" fill="rgb(0,0,0)" y="513.000"
                  style="font-family: sans-serif; font-weight: normal; font-style: normal; font-size: 11px"
                  transform="matrix(1.000,0.000,0.000,1.000,0.000,0.000)"
                  text-anchor="end">
                0.000
            </text>
            <line transform="matrix(1.000,0.000,0.000,1.000,0.000,0.000)"
                  x1="41.203" x2="796.000" y1="470.000" y2="470.000"
                  style="stroke-width: 1; stroke-linecap: round; stroke-linejoin: round; "
                  stroke="rgb(230,230,230)"/>
            <line transform="matrix(1.000,0.000,0.000,1.000,0.000,0.000)"
                  x1="39.203" x2="41.203" y1="470.420" y2="470.420"
                  style="stroke-width: 0.5; stroke-linecap: round; stroke-linejoin: round; "
                  stroke="rgb(100,100,100)"/>
            <text x="37.203" fill="rgb(0,0,0)" y="475.920"
                  style="font-family: sans-serif; font-weight: normal; font-style: normal; font-size: 11px"
                  transform="matrix(1.000,0.000,0.000,1.000,0.000,0.000)"
                  text-anchor="end">
                0.002
            </text>
            <line transform="matrix(1.000,0.000,0.000,1.000,0.000,0.000)"
                  x1="41.203" x2="796.000" y1="433.000" y2="433.000"
                  style="stroke-width: 1; stroke-linecap: round; stroke-linejoin: round; "
                  stroke="rgb(230,230,230)"/>
            <line transform="matrix(1.000,0.000,0.000,1.000,0.000,0.000)"
                  x1="39.203" x2="41.203" y1="433.340" y2="433.340"
                  style="stroke-width: 0.5; stroke-linecap: round; stroke-linejoin: round; "
                  stroke="rgb(100,100,100)"/>
            <text x="37.203" fill="rgb(0,0,0)" y="438.840"
                  style="font-family: sans-serif; font-weight: normal; font-style: normal; font-size: 11px"
                  transform="matrix(1.000,0.000,0.000,1.000,0.000,0.000)"
                  text-anchor="end">
                0.004
            </text>
            <line transform="matrix(1.000,0.000,0.000,1.000,0.000,0.000)"
                  x1="41.203" x2="796.000" y1="396.000" y2="396.000"
                  style="stroke-width: 1; stroke-linecap: round; stroke-linejoin: round; "
                  stroke="rgb(230,230,230)"/>
            <line transform="matrix(1.000,0.000,0.000,1.000,0.000,0.000)"
                  x1="39.203" x2="41.203" y1="396.260" y2="396.260"
                  style="stroke-width: 0.5; stroke-linecap: round; stroke-linejoin: round; "
                  stroke="rgb(100,100,100)"/>
            <text x="37.203" fill="rgb(0,0,0)" y="401.760"
                  style="font-family: sans-serif; font-weight: normal; font-style: normal; font-size: 11px"
                  transform="matrix(1.000,0.000,0.000,1.000,0.000,0.000)"
                  text-anchor="end">
                0.006
            </text>
            <line transform="matrix(1.000,0.000,0.000,1.000,0.000,0.000)"
                  x1="41.203" x2="796.000" y1="359.000" y2="359.000"
                  style="stroke-width: 1; stroke-linecap: round; stroke-linejoin: round; "
                  stroke="rgb(230,230,230)"/>
            <line transform="matrix(1.000,0.000,0.000,1.000,0.000,0.000)"
                  x1="39.203" x2="41.203" y1="359.180" y2="359.180"
                  style="stroke-width: 0.5; stroke-linecap: round; stroke-linejoin: round; "
                  stroke="rgb(100,100,100)"/>
            <text x="37.203" fill="rgb(0,0,0)" y="364.680"
                  style="font-family: sans-serif; font-weight: normal; font-style: normal; font-size: 11px"
                  transform="matrix(1.000,0.000,0.000,1.000,0.000,0.000)"
                  text-anchor="end">
                0.008
            </text>
            <line transform="matrix(1.000,0.000,0.000,1.000,0.000,0.000)"
                  x1="41.203" x2="796.000" y1="322.000" y2="322.000"
                  style="stroke-width: 1; stroke-linecap: round; stroke-linejoin: round; "
                  stroke="rgb(230,230,230)"/>
            <line transform="matrix(1.000,0.000,0.000,1.000,0.000,0.000)"
                  x1="39.203" x2="41.203" y1="322.100" y2="322.100"
                  style="stroke-width: 0.5; stroke-linecap: round; stroke-linejoin: round; "
                  stroke="rgb(100,100,100)"/>
            <text x="37.203" fill="rgb(0,0,0)" y="327.600"
                  style="font-family: sans-serif; font-weight: normal; font-style: normal; font-size: 11px"
                  transform="matrix(1.000,0.000,0.000,1.000,0.000,0.000)"
                  text-anchor="end">
                0.010
            </text>
            <line transform="matrix(1.000,0.000,0.000,1.000,0.000,0.000)"
                  x1="41.203" x2="796.000" y1="285.000" y2="285.000"
                  style="stroke-width: 1; stroke-linecap: round; stroke-linejoin: round; "
                  stroke="rgb(230,230,230)"/>
            <line transform="matrix(1.000,0.000,0.000,1.000,0.000,0.000)"
                  x1="39.203" x2="41.203" y1="285.020" y2="285.020"
                  style="stroke-width: 0.5; stroke-linecap: round; stroke-linejoin: round; "
                  stroke="rgb(100,100,100)"/>
            <text x="37.203" fill="rgb(0,0,0)" y="290.520"
                  style="font-family: sans-serif; font-weight: normal; font-style: normal; font-size: 11px"
                  transform="matrix(1.000,0.000,0.000,1.000,0.000,0.000)"
                  text-anchor="end">
                0.012
            </text>
            <line transform="matrix(1.000,0.000,0.000,1.000,0.000,0.000)"
                  x1="41.203" x2="796.000" y1="248.000" y2="248.000"
                  style="stroke-width: 1; stroke-linecap: round; stroke-linejoin: round; "
                  stroke="rgb(230,230,230)"/>
            <line transform="matrix(1.000,0.000,0.000,1.000,0.000,0.000)"
                  x1="39.203" x2="41.203" y1="247.940" y2="247.940"
                  style="stroke-width: 0.5; stroke-linecap: round; stroke-linejoin: round; "
                  stroke="rgb(100,100,100)"/>
            <text x="37.203" fill="rgb(0,0,0)" y="253.440"
                  style="font-family: sans-serif; font-weight: normal; font-style: normal; font-size: 11px"
                  transform="matrix(1.000,0.000,0.000,1.000,0.000,0.000)"
                  text-anchor="end">
                0.014
            </text>
            <line transform="matrix(1.000,0.000,0.000,1.000,0.000,0.000)"
                  x1="41.203" x2="796.000" y1="211.000" y2="211.000"
                  style="stroke-width: 1; stroke-linecap: round; stroke-linejoin: round; "
                  stroke="rgb(230,230,230)"/>
            <line transform="matrix(1.000,0.000,0.000,1.000,0.000,0.000)"
                  x1="39.203" x2="41.203" y1="210.860" y2="210.860"
                  style="stroke-width: 0.5; stroke-linecap: round; stroke-linejoin: round; "
                  stroke="rgb(100,100,100)"/>
            <text x="37.203" fill="rgb(0,0,0)" y="216.360"
                  style="font-family: sans-serif; font-weight: normal; font-style: normal; font-size: 11px"
                  transform="matrix(1.000,0.000,0.000,1.000,0.000,0.000)"
                  text-anchor="end">
                0.016
            </text>
            <line transform="matrix(1.000,0.000,0.000,1.000,0.000,0.000)"
                  x1="41.203" x2="796.000" y1="174.000" y2="174.000"
                  style="stroke-width: 1; stroke-linecap: round; stroke-linejoin: round; "
                  stroke="rgb(230,230,230)"/>
            <line transform="matrix(1.000,0.000,0.000,1.000,0.000,0.000)"
                  x1="39.203" x2="41.203" y1="173.780" y2="173.780"
                  style="stroke-width: 0.5; stroke-linecap: round; stroke-linejoin: round; "
                  stroke="rgb(100,100,100)"/>
            <text x="37.203" fill="rgb(0,0,0)" y="179.280"
                  style="font-family: sans-serif; font-weight: normal; font-style: normal; font-size: 11px"
                  transform="matrix(1.000,0.000,0.000,1.000,0.000,0.000)"
                  text-anchor="end">
                0.018
            </text>
            <line transform="matrix(1.000,0.000,0.000,1.000,0.000,0.000)"
                  x1="41.203" x2="796.000" y1="137.000" y2="137.000"
                  style="stroke-width: 1; stroke-linecap: round; stroke-linejoin: round; "
                  stroke="rgb(230,230,230)"/>
            <line transform="matrix(1.000,0.000,0.000,1.000,0.000,0.000)"
                  x1="39.203" x2="41.203" y1="136.700" y2="136.700"
                  style="stroke-width: 0.5; stroke-linecap: round; stroke-linejoin: round; "
                  stroke="rgb(100,100,100)"/>
            <text x="37.203" fill="rgb(0,0,0)" y="142.200"
                  style="font-family: sans-serif; font-weight: normal; font-style: normal; font-size: 11px"
                  transform="matrix(1.000,0.000,0.000,1.000,0.000,0.000)"
                  text-anchor="end">
                0.020
            </text>
            <line transform="matrix(1.000,0.000,0.000,1.000,0.000,0.000)"
                  x1="41.203" x2="796.000" y1="100.000" y2="100.000"
                  style="stroke-width: 1; stroke-linecap: round; stroke-linejoin: round; "
                  stroke="rgb(230,230,230)"/>
            <line transform="matrix(1.000,0.000,0.000,1.000,0.000,0.000)"
                  x1="39.203" x2="41.203" y1="99.620" y2="99.620"
                  style="stroke-width: 0.5; stroke-linecap: round; stroke-linejoin: round; "
                  stroke="rgb(100,100,100)"/>
            <text x="37.203" fill="rgb(0,0,0)" y="105.120"
                  style="font-family: sans-serif; font-weight: normal; font-style: normal; font-size: 11px"
                  transform="matrix(1.000,0.000,0.000,1.000,0.000,0.000)"
                  text-anchor="end">
                0.022
            </text>
            <line transform="matrix(1.000,0.000,0.000,1.000,0.000,0.000)"
                  x1="41.203" x2="796.000" y1="63.000" y2="63.000"
                  style="stroke-width: 1; stroke-linecap: round; stroke-linejoin: round; "
                  stroke="rgb(230,230,230)"/>
            <line transform="matrix(1.000,0.000,0.000,1.000,0.000,0.000)"
                  x1="39.203" x2="41.203" y1="62.540" y2="62.540"
                  style="stroke-width: 0.5; stroke-linecap: round; stroke-linejoin: round; "
                  stroke="rgb(100,100,100)"/>
            <text x="37.203" fill="rgb(0,0,0)" y="68.040"
                  style="font-family: sans-serif; font-weight: normal; font-style: normal; font-size: 11px"
                  transform="matrix(1.000,0.000,0.000,1.000,0.000,0.000)"
                  text-anchor="end">
                0.024
            </text>
            <line transform="matrix(1.000,0.000,0.000,1.000,0.000,0.000)"
                  x1="41.203" x2="41.203" y1="35.000" y2="530.000"
                  style="stroke-width: 0.5; stroke-linecap: round; stroke-linejoin: round; "
                  stroke="rgb(100,100,100)"/>
            <g class="dataArea" clip-path="url(#clip-1)">
                <rect fill="rgb(0, 0, 0)" x="41.203125" width="754.796875"
                      fill-opacity="0" height="495" y="35"/>
                <path fill="none"
                      d="M 75.512 507.500L 95.694 507.500L 115.876 507.500L 136.057 507.500L 156.239 507.500L 176.421 507.500L 196.602 113.032L 216.784 318.316L 236.966 217.813L 257.148 300.926L 277.329 258.455L 297.511 57.500L 317.693 58.854L 337.875 71.731L 358.056 57.907L 378.238 124.337L 398.420 208.153L 418.602 236.989L 438.783 243.993L 458.965 219.819L 479.147 214.280L 499.329 179.955L 519.510 143.550L 539.692 130.869L 559.874 119.410L 580.055 114.358L 600.237 109.298L 620.419 113.425L 640.601 113.672L 660.782 109.356L 680.964 110.910L 701.146 116.208L 721.328 117.534L 741.509 113.917L 761.691 108.003"
                      style="stroke-width: 2; stroke-linecap: round; stroke-linejoin: round; "
                      stroke="rgb(100,225,213)"/>
            </g>
            <rect fill="rgb(255,255,255)" x="678.28125" width="12"
                  fill-opacity="0.001" height="18" y="574"/>
            <rect fill="rgb(100,225,213)" x="680.28125" width="8" height="5"
                  y="580.5"/>
            <rect fill="rgb(255,255,255)" x="690.28125" width="101.71875"
                  fill-opacity="0.001" height="18" y="574"/>
            <text style="font-family: sans-serif; font-weight: normal; font-style: normal; font-size: 12px"
                  x="692.28125" y="587.48">
                deaths/cases ratio
            </text>
            <rect fill="rgb(255,255,255)" x="0" width="372.734375"
                  fill-opacity="0.001" height="31" y="0"/>
            <text style="font-family: sans-serif; font-weight: normal; font-style: normal; font-size: 24px"
                  x="2" y="24.14">
                Italy&apos;s Daily Covid-19 Death/Cases
            </text>
        </g>
    </g>
    <g visibility="hidden" id="hiddenGroup"/>
</svg>